<?xml version="1.0" encoding="UTF-8"?> <!-- Generator: Adobe Illustrator 26.0.1, SVG Export Plug-In . SVG Version: 6.00 Build 0) --> <svg xmlns="http://www.w3.org/2000/svg" xmlns:xlink="http://www.w3.org/1999/xlink" version="1.1" id="Layer_1" x="0px" y="0px" viewBox="0 0 72 72" xml:space="preserve"> <g> <g> <g> <g> <defs> <path id="SVGID_1_" d="M36.0629,34.0834c-0.1757,0.0878-0.3513,0.0878-0.4392,0l-14.2287-8.2562 c-0.9661,0.7027-1.4931,1.7566-1.4931,2.8984v0.3513l13.8774,8.1683c0.6148,0.3513,1.3175,0.527,2.0201,0.527 c0.7027,0,1.4053-0.1757,2.0201-0.527l14.3166-8.2562v-0.4392c-0.0878-0.9661-0.6148-2.1958-1.581-2.8106L36.0629,34.0834z"></path> </defs> <clipPath id="SVGID_00000001640165309477295640000005968698590512123824_"> <use xlink:href="#SVGID_1_" overflow="visible"></use> </clipPath> <linearGradient id="SVGID_00000163759966859342698790000000708735466665853341_" gradientUnits="userSpaceOnUse" x1="246.5437" y1="-31.6884" x2="247.422" y2="-31.6884" gradientTransform="matrix(0 13.3497 -13.3497 0 -387.0118 -3265.7747)"> <stop offset="0" style="stop-color:#007FBF"></stop> <stop offset="0.8896" style="stop-color:#03A5F7"></stop> <stop offset="1" style="stop-color:#03AAFE"></stop> </linearGradient> <rect x="19.9019" y="25.7394" clip-path="url(#SVGID_00000001640165309477295640000005968698590512123824_)" fill="url(#SVGID_00000163759966859342698790000000708735466665853341_)" width="32.2342" height="12.0329"></rect> </g> </g> <g> <g> <defs> <path id="SVGID_00000070828877005840528680000007827429503409511846_" d="M19.9897,46.0285 c0,6.9387,1.2296,13.6139,3.6011,19.6743l9.2223,5.3577c2.0201,1.1418,4.3916,1.1418,6.4117,0l18.1812-10.452 c-9.1345-0.7027-17.5663-3.6011-24.9442-8.2562l-10.8911-6.236c-0.8783-0.527-1.4053-1.3175-1.581-2.2836 C19.9897,44.5354,19.9897,45.3259,19.9897,46.0285"></path> </defs> <clipPath id="SVGID_00000084506745213308631880000017418584140794581686_"> <use xlink:href="#SVGID_00000070828877005840528680000007827429503409511846_" overflow="visible"></use> </clipPath> <linearGradient id="SVGID_00000135661372419341077130000005731763359461414295_" gradientUnits="userSpaceOnUse" x1="239.7189" y1="-48.5729" x2="240.5973" y2="-48.5729" gradientTransform="matrix(27.3949 18.3369 -18.3369 27.3949 -7434.8247 -3017.5625)"> <stop offset="0" style="stop-color:#007FBF"></stop> <stop offset="0.8896" style="stop-color:#03A5F7"></stop> <stop offset="1" style="stop-color:#03AAFE"></stop> </linearGradient> <polygon clip-path="url(#SVGID_00000084506745213308631880000017418584140794581686_)" fill="url(#SVGID_00000135661372419341077130000005731763359461414295_)" points=" 31.4957,26.5299 70.4929,52.6159 45.8122,89.5052 6.815,63.4192 "></polygon> </g> </g> <g> <g> <defs> <path id="SVGID_00000096054730092704632720000016039696008468675490_" d="M49.3255,46.6434l-11.7694,6.763 c-0.9661,0.527-1.9323,0.7027-2.8984,0.1757c0,0,0.1757,0.0878,0.3513,0.1757c6.6752,3.6889,14.3166,6.0604,22.3092,6.6752 l7.4657-4.3037c2.0201-1.1418,3.1619-3.2498,3.1619-5.5334V30.3067C63.1151,37.0697,56.7912,42.6909,49.3255,46.6434"></path> </defs> <clipPath id="SVGID_00000045603102446260441860000001016415154312933028_"> <use xlink:href="#SVGID_00000096054730092704632720000016039696008468675490_" overflow="visible"></use> </clipPath> <linearGradient id="SVGID_00000014627877566308571200000013126400892117286282_" gradientUnits="userSpaceOnUse" x1="239.8956" y1="-59.2578" x2="240.7739" y2="-59.2578" gradientTransform="matrix(24.081 -18.9997 18.9997 24.081 -4608.9746 6037.6646)"> <stop offset="0" style="stop-color:#007FBF"></stop> <stop offset="0.8896" style="stop-color:#03A5F7"></stop> <stop offset="1" style="stop-color:#03AAFE"></stop> </linearGradient> <polygon clip-path="url(#SVGID_00000045603102446260441860000001016415154312933028_)" fill="url(#SVGID_00000014627877566308571200000013126400892117286282_)" points=" 19.9019,41.9005 55.2102,14.0578 82.7894,48.927 47.481,76.7696 "></polygon> </g> </g> <g> <g> <defs> <path id="SVGID_00000169521792246536777540000013100629493559742905_" d="M7.1663,15.551 c-2.0201,1.1418-3.2498,3.2498-3.2498,5.5334v19.7621C8.5716,34.6983,14.5442,29.604,21.395,25.8273 c0.0878,0,12.9991-7.5535,12.9991-7.5535c0.7905-0.4392,1.8445-0.527,2.7228-0.2635 c-6.1482-3.9524-13.1747-6.6752-20.6404-7.9048L7.1663,15.551z"></path> </defs> <clipPath id="SVGID_00000151517661283075387370000000931198670039289010_"> <use xlink:href="#SVGID_00000169521792246536777540000013100629493559742905_" overflow="visible"></use> </clipPath> <linearGradient id="SVGID_00000077287263068914769520000005238999143644666011_" gradientUnits="userSpaceOnUse" x1="252.8837" y1="-48.6954" x2="253.762" y2="-48.6954" gradientTransform="matrix(-30.9297 22.7554 -22.7554 -30.9297 6746.1685 -7244.0005)"> <stop offset="0" style="stop-color:#007FBF"></stop> <stop offset="0.8896" style="stop-color:#03A5F7"></stop> <stop offset="1" style="stop-color:#03AAFE"></stop> </linearGradient> <polygon clip-path="url(#SVGID_00000151517661283075387370000000931198670039289010_)" fill="url(#SVGID_00000077287263068914769520000005238999143644666011_)" points=" 51.697,30.0432 15.5982,56.6562 -10.6635,20.9965 25.4353,-5.6165 "></polygon> </g> </g> <g> <g> <defs> <path id="SVGID_00000063608860878016972610000016184130077975484034_" d="M3.9166,40.8465v9.8371 c0,2.2836,1.2296,4.3916,3.2498,5.5334l16.4245,9.4858c-2.2836-6.1482-3.6011-12.7356-3.6011-19.6743 c0-0.7905,0-1.4931,0.0878-2.2836c0-0.1757,0-15.2827,0-15.2827c0-1.054,0.527-2.108,1.4053-2.6349 C14.5442,29.604,8.6595,34.6983,3.9166,40.8465"></path> </defs> <clipPath id="SVGID_00000109010125277400706040000012218402230813255592_"> <use xlink:href="#SVGID_00000063608860878016972610000016184130077975484034_" overflow="visible"></use> </clipPath> <linearGradient id="SVGID_00000098209780957761967090000011594104093281803183_" gradientUnits="userSpaceOnUse" x1="246.7719" y1="-43.8036" x2="247.6502" y2="-43.8036" gradientTransform="matrix(0 30.6055 -30.6055 0 -1326.9199 -7520.6509)"> <stop offset="0" style="stop-color:#007FBF"></stop> <stop offset="0.8896" style="stop-color:#03A5F7"></stop> <stop offset="1" style="stop-color:#03AAFE"></stop> </linearGradient> <rect x="3.9166" y="25.8273" clip-path="url(#SVGID_00000109010125277400706040000012218402230813255592_)" fill="url(#SVGID_00000098209780957761967090000011594104093281803183_)" width="19.5865" height="39.8756"></rect> </g> </g> <g> <g> <defs> <path id="SVGID_00000002361260065018208050000016513029565879526051_" d="M50.4673,46.1164 C50.3795,46.1164,50.3795,46.1164,50.4673,46.1164 M51.9605,26.6178v16.688c0,1.1418-0.6148,2.1958-1.581,2.8106 c6.9387-3.9524,12.9113-9.398,17.5663-15.8097v-9.2223c0-2.2836-1.2296-4.3916-3.1619-5.5334L47.9202,5.8017 C50.5552,12.2134,51.9605,19.2399,51.9605,26.6178"></path> </defs> <clipPath id="SVGID_00000118392056766169067200000001362290123252603792_"> <use xlink:href="#SVGID_00000002361260065018208050000016513029565879526051_" overflow="visible"></use> </clipPath> <linearGradient id="SVGID_00000171703638543810273490000013316249129181691316_" gradientUnits="userSpaceOnUse" x1="247.2523" y1="-61.9001" x2="248.1306" y2="-61.9001" gradientTransform="matrix(0 -32.3143 32.3143 0 2058.2351 8030.1704)"> <stop offset="0" style="stop-color:#007FBF"></stop> <stop offset="0.8896" style="stop-color:#03A5F7"></stop> <stop offset="1" style="stop-color:#03AAFE"></stop> </linearGradient> <rect x="47.9202" y="5.8017" clip-path="url(#SVGID_00000118392056766169067200000001362290123252603792_)" fill="url(#SVGID_00000171703638543810273490000013316249129181691316_)" width="20.1134" height="40.3147"></rect> </g> </g> <g> <g> <defs> <path id="SVGID_00000183243878374939152740000011887303805807416465_" d="M32.8132,0.7074l-16.4245,9.4858 c7.4657,1.2296,14.4922,3.9524,20.6404,7.9048c0.1757,0.0878,13.3504,7.6414,13.3504,7.6414 c0.8783,0.527,1.4931,1.4053,1.581,2.4593c0-0.527,0-1.054,0-1.4931c0-7.3779-1.4053-14.4044-4.0403-20.8161L39.137,0.7952 c-0.9661-0.6148-2.108-0.8783-3.1619-0.8783S33.7793,0.1804,32.8132,0.7074"></path> </defs> <clipPath id="SVGID_00000104698560789181760510000016342276235384988582_"> <use xlink:href="#SVGID_00000183243878374939152740000011887303805807416465_" overflow="visible"></use> </clipPath> <linearGradient id="SVGID_00000003104071448258186520000002046877790983721904_" gradientUnits="userSpaceOnUse" x1="255.212" y1="-57.4866" x2="256.0903" y2="-57.4866" gradientTransform="matrix(-27.0083 -14.9125 14.9125 -27.0083 7798.9751 2275.333)"> <stop offset="0" style="stop-color:#007FBF"></stop> <stop offset="0.8896" style="stop-color:#03A5F7"></stop> <stop offset="1" style="stop-color:#03AAFE"></stop> </linearGradient> <polygon clip-path="url(#SVGID_00000104698560789181760510000016342276235384988582_)" fill="url(#SVGID_00000003104071448258186520000002046877790983721904_)" points=" 43.7043,43.2179 4.4435,21.5235 24.7327,-15.1901 63.9934,6.5043 "></polygon> </g> </g> </g> </g> </svg> 