<?xml version="1.0" encoding="UTF-8"?>
<!DOCTYPE svg PUBLIC "-//W3C//DTD SVG 1.1//EN" "http://www.w3.org/Graphics/SVG/1.1/DTD/svg11.dtd">
<svg xmlns="http://www.w3.org/2000/svg" version="1.1" width="966px" height="899px" style="shape-rendering:geometricPrecision; text-rendering:geometricPrecision; image-rendering:optimizeQuality; fill-rule:evenodd; clip-rule:evenodd" xmlns:xlink="http://www.w3.org/1999/xlink">
<g><path style="opacity:0.992" fill="#010101" d="M 266.5,9.5 C 353.318,5.27688 427.984,32.9435 490.5,92.5C 578.982,32.2636 674.482,17.9303 777,49.5C 843.998,74.8283 893.665,119.495 926,183.5C 957.155,248.718 963.822,316.385 946,386.5C 932.728,434.029 909.061,475.363 875,510.5C 869.034,561.966 840.201,589.3 788.5,592.5C 789.109,621.172 778.109,644.338 755.5,662C 739.864,672.744 722.531,677.577 703.5,676.5C 703.235,719.585 682.569,747.418 641.5,760C 635.332,760.894 629.165,761.727 623,762.5C 616.1,761.602 609.267,760.769 602.5,760C 600.118,774.482 594.618,787.648 586,799.5C 564.556,821.945 542.722,844.112 520.5,866C 494.951,888.761 465.951,894.427 433.5,883C 399.764,867.385 382.764,840.885 382.5,803.5C 346.148,803.287 319.981,786.954 304,754.5C 299.373,742.94 297.206,730.94 297.5,718.5C 261.147,718.251 234.981,701.918 219,669.5C 214.188,657.989 212.022,645.989 212.5,633.5C 180.804,633.739 156.304,620.739 139,594.5C 129.126,577.047 125.459,558.38 128,538.5C 27.1341,449.23 -8.8659,338.564 20,206.5C 41.3805,134.464 84.8805,80.2978 150.5,44C 186.958,24.6768 225.625,13.1768 266.5,9.5 Z"/></g>
<g><path style="opacity:1" fill="#fefefe" d="M 439.5,584.5 C 437.393,583.532 435.059,583.198 432.5,583.5C 432.818,578.968 432.485,574.634 431.5,570.5C 426.559,537.132 408.226,514.632 376.5,503C 369.651,500.863 362.651,499.697 355.5,499.5C 353.052,498.527 350.385,498.194 347.5,498.5C 347.817,494.298 347.483,490.298 346.5,486.5C 341.843,452.688 323.51,429.854 291.5,418C 264.288,409.507 239.288,413.84 216.5,431C 193.833,453.667 171.167,476.333 148.5,499C 105.043,462.676 75.71,416.843 60.5,361.5C 42.2447,296.645 47.7447,233.978 77,173.5C 119.42,101.171 182.587,60.3377 266.5,51C 340.65,46.4889 404.65,69.4889 458.5,120C 394.833,183.667 331.167,247.333 267.5,311C 312.207,362.791 367.207,378.458 432.5,358C 448.244,351.966 462.577,343.632 475.5,333C 507.852,300.482 540.519,267.982 573.5,235.5C 657.486,318.986 741.32,402.653 825,486.5C 834.651,501.9 834.984,517.567 826,533.5C 813.414,548.805 797.581,553.639 778.5,548C 772.471,545.321 767.138,541.654 762.5,537C 704.167,478.667 645.833,420.333 587.5,362C 573.73,354.734 563.23,357.901 556,371.5C 554.752,378.215 555.752,384.548 559,390.5C 619,450.5 679,510.5 739,570.5C 746.999,580.513 749.665,591.846 747,604.5C 739.606,627.623 723.773,637.789 699.5,635C 695.281,633.891 691.281,632.225 687.5,630C 625.861,569.361 564.527,508.361 503.5,447C 488.519,438.699 477.352,442.199 470,457.5C 469.118,463.974 470.451,469.974 474,475.5C 533.333,534.833 592.667,594.167 652,653.5C 661.407,663.733 664.741,675.733 662,689.5C 654.302,712.941 638.135,723.107 613.5,720C 610.007,719.058 606.674,717.725 603.5,716C 598.5,712.333 593.5,708.667 588.5,705C 571.064,680.949 547.397,669.115 517.5,669.5C 516.402,626.578 495.402,598.745 454.5,586C 449.519,585.252 444.519,584.752 439.5,584.5 Z"/></g>
<g><path style="opacity:1" fill="#fefefe" d="M 661.5,73.5 C 711.303,71.0158 757.969,81.8491 801.5,106C 858.995,143.087 895.162,195.253 910,262.5C 921.469,324.56 911.469,382.894 880,437.5C 874.109,447.39 867.443,456.723 860,465.5C 770.99,374.486 680.823,283.653 589.5,193C 580.825,185.696 571.491,184.696 561.5,190C 524.5,227 487.5,264 450.5,301C 419.02,326.414 384.02,332.747 345.5,320C 338.724,317.446 332.391,314.113 326.5,310C 382.5,254 438.5,198 494.5,142C 542.75,101.3 598.416,78.4668 661.5,73.5 Z"/></g>
<g><path style="opacity:1" fill="#fdfdfd" d="M 258.5,454.5 C 289.068,453.575 304.901,468.242 306,498.5C 305.242,505.445 302.908,511.778 299,517.5C 276.5,540 254,562.5 231.5,585C 213.547,595.883 196.547,594.55 180.5,581C 165.564,563.491 164.73,545.324 178,526.5C 199.167,505.333 220.333,484.167 241.5,463C 246.712,459.061 252.379,456.227 258.5,454.5 Z"/></g>
<g><path style="opacity:1" fill="#8b8b8b" d="M 346.5,486.5 C 347.483,490.298 347.817,494.298 347.5,498.5C 350.385,498.194 353.052,498.527 355.5,499.5C 352.5,499.5 349.5,499.5 346.5,499.5C 346.5,495.167 346.5,490.833 346.5,486.5 Z"/></g>
<g><path style="opacity:1" fill="#fcfcfc" d="M 343.5,539.5 C 367.604,538.121 383.437,548.787 391,571.5C 393.072,584.767 389.739,596.434 381,606.5C 359.472,628.362 337.639,649.862 315.5,671C 296.671,681.392 279.504,679.225 264,664.5C 252.255,649.89 250.588,634.223 259,617.5C 281.469,592.697 304.969,568.864 329.5,546C 334.137,543.511 338.804,541.344 343.5,539.5 Z"/></g>
<g><path style="opacity:1" fill="#909090" d="M 431.5,570.5 C 432.485,574.634 432.818,578.968 432.5,583.5C 435.059,583.198 437.393,583.532 439.5,584.5C 436.833,584.5 434.167,584.5 431.5,584.5C 431.5,579.833 431.5,575.167 431.5,570.5 Z"/></g>
<g><path style="opacity:1" fill="#fdfdfd" d="M 429.5,624.5 C 451.208,623.402 466.375,632.736 475,652.5C 477.871,664.483 476.204,675.817 470,686.5C 446.803,711.364 422.636,735.197 397.5,758C 379.367,766.194 363.201,763.361 349,749.5C 336.364,733.514 335.364,716.848 346,699.5C 368.5,677 391,654.5 413.5,632C 418.542,628.643 423.876,626.143 429.5,624.5 Z"/></g>
<g><path style="opacity:1" fill="#fdfdfd" d="M 515.5,709.5 C 546.987,710.152 562.154,726.152 561,757.5C 559.672,763.822 557.005,769.489 553,774.5C 530.472,797.362 507.639,819.862 484.5,842C 461.873,852.676 443.373,847.843 429,827.5C 422.709,813.661 423.042,799.994 430,786.5C 452.138,763.361 474.638,740.528 497.5,718C 502.99,713.902 508.99,711.069 515.5,709.5 Z"/></g>
</svg>
