<svg id="SvgjsSvg1033" width="100%" height="100%" xmlns="http://www.w3.org/2000/svg" version="1.1" xlink="http://www.w3.org/1999/xlink" xmlns:svgjs="http://svgjs.com/svgjs" preserveAspectRatio="xMidYMid meet" viewBox="0 -1.8583725136522844e-7 152.1936492919922 147" overflow="visible"><defs id="SvgjsDefs1034"></defs><g id="SvgjsG1035" transform="scale(0.5789912991549521)" opacity="1"><g id="SvgjsG1036" class="XEpI1l4CaD" transform="translate(29.20672760653322, -11.317333007622059) scale(2.0444553091978346)" light-content="false" non-strokable="false" fill="#41baf6"><path d="M93.508 91.519H8.739l13.419-21.878h66.378a.993.993 0 1 0 0-1.988H23.377l7.03-11.462 11.695 6.073a1.49 1.49 0 0 0 2.054-.725l7.343-16.758h1.76l7.101 4.723a1.496 1.496 0 0 0 2.073-.421l2.835-4.302h23.267a.993.993 0 1 0 0-1.988H66.58l3.064-4.648a1.51 1.51 0 0 0 .243-.724l1.141-17.5h4.205l7.239 4.96a1.493 1.493 0 0 0 1.876-.154l6.215-5.967a1.491 1.491 0 1 0-2.066-2.152l-1.38 1.325h-9.509l-6.876-4.711a1.494 1.494 0 0 0-2.332 1.134l-.233 3.578H7.983V6.989a1.492 1.492 0 0 0-2.983 0v86.022c0 .824.668 1.492 1.492 1.492h87.017a1.492 1.492 0 1 0-.001-2.984zM7.983 87.045V69.641h10.674L7.983 87.045zm34.08-28.164l-11.514-5.979a1.494 1.494 0 0 0-1.959.545l-8.713 14.205H7.983V44.779h40.258l-6.178 14.102zm18.703-12.693l-2.119-1.409h3.048l-.929 1.409zm24.28-26.271l-1.888 1.813-2.646-1.813h4.534zm-13.839-2.758l1.123.769h-1.173l.05-.769zm-3.169 2.758l-1.103 16.912-3.929 5.961h-7.349l-3.587-2.386a1.492 1.492 0 0 0-2.193.644l-.763 1.742H7.983V19.917h60.055z"></path></g><g id="SvgjsG1037" class="text" transform="translate(130.67999267578125, 253.2898271839658) scale(1)" light-content="false" fill="#030303"><path d="M-96.66 -28.02C-96.66 -30.62 -97.18 -32.98 -98.22 -35.1C-99.26 -37.22 -100.6 -38.9 -102.24 -40.14C-105.56 -42.7 -108.98 -43.98 -112.5 -43.98L-125.34 -43.98C-127.9 -43.98 -129.46 -43.44 -130.02 -42.36C-130.34 -41.76 -130.53 -41.23 -130.59 -40.77C-130.65 -40.31 -130.68 -39.62 -130.68 -38.7L-130.68 -5.4C-130.68 -4 -130.56 -2.96 -130.32 -2.28C-129.84 -0.8 -128.2 -0.06 -125.4 -0.06C-122.84 -0.06 -121.28 -0.6 -120.72 -1.68C-120.4 -2.28 -120.21 -2.81 -120.15 -3.27C-120.09 -3.73 -120.06 -4.42 -120.06 -5.34L-120.06 -12.12L-112.56 -12.12C-109 -12.12 -105.56 -13.4 -102.24 -15.96C-100.6 -17.2 -99.26 -18.87 -98.22 -20.97C-97.18 -23.07 -96.66 -25.42 -96.66 -28.02ZM-108.96 -24.06C-110.12 -23.18 -111.3 -22.74 -112.5 -22.74L-120.06 -22.74L-120.06 -33.36L-112.56 -33.36C-111.32 -33.36 -110.12 -32.91 -108.96 -32.01C-107.8 -31.11 -107.22 -29.78 -107.22 -28.02C-107.22 -26.26 -107.8 -24.94 -108.96 -24.06Z M-63.39 -30.03C-63.89 -30.61 -64.52 -31.02 -65.28 -31.26C-66.04 -31.5 -66.74 -31.67 -67.38 -31.77C-68.02 -31.87 -68.81 -31.92 -69.75 -31.92C-70.69 -31.92 -71.78 -31.58 -73.02 -30.9C-74.26 -30.22 -75.07 -29.68 -75.45 -29.28C-75.83 -28.88 -76.12 -28.54 -76.32 -28.26C-76.32 -28.94 -76.54 -29.6 -76.98 -30.24C-77.58 -31.16 -79.08 -31.62 -81.48 -31.62C-84.04 -31.62 -85.6 -31.08 -86.16 -30C-86.44 -29.44 -86.61 -28.93 -86.67 -28.47C-86.73 -28.01 -86.76 -27.32 -86.76 -26.4L-86.76 -5.34L-86.76 -3.6C-86.68 -2.44 -86.32 -1.58 -85.68 -1.02C-84.84 -0.34 -83.46 0 -81.54 0C-79.02 0 -77.46 -0.52 -76.86 -1.56C-76.54 -2.16 -76.35 -2.69 -76.29 -3.15C-76.23 -3.61 -76.2 -4.3 -76.2 -5.22L-76.2 -17.82C-76.2 -18.9 -75.73 -19.82 -74.79 -20.58C-73.85 -21.34 -72.84 -21.72 -71.76 -21.72C-70.68 -21.72 -69.81 -21.56 -69.15 -21.24C-68.49 -20.92 -67.8 -20.76 -67.08 -20.76C-65.64 -20.76 -64.54 -21.52 -63.78 -23.04C-63.02 -24.56 -62.64 -25.96 -62.64 -27.24C-62.64 -28.52 -62.89 -29.45 -63.39 -30.03Z M-51 -27.66C-54.36 -24.54 -56.04 -20.58 -56.04 -15.78C-56.04 -12.58 -55.19 -9.71 -53.49 -7.17C-51.79 -4.63 -49.7 -2.71 -47.22 -1.41C-44.74 -0.11 -42.18 0.54 -39.54 0.54C-36.9 0.54 -34.35 -0.07 -31.89 -1.29C-29.43 -2.51 -27.34 -4.41 -25.62 -6.99C-23.9 -9.57 -23.04 -12.52 -23.04 -15.84C-23.04 -20.64 -24.7 -24.59 -28.02 -27.69C-31.34 -30.79 -35.16 -32.34 -39.48 -32.34C-43.8 -32.34 -47.64 -30.78 -51 -27.66ZM-39.6 -10.02C-40.92 -10.02 -42.22 -10.51 -43.5 -11.49C-44.78 -12.47 -45.42 -13.93 -45.42 -15.87C-45.42 -17.81 -44.8 -19.28 -43.56 -20.28C-42.32 -21.28 -40.98 -21.78 -39.54 -21.78C-38.1 -21.78 -36.76 -21.3 -35.52 -20.34C-34.28 -19.38 -33.66 -17.92 -33.66 -15.96C-33.66 -14 -34.32 -12.52 -35.64 -11.52C-36.96 -10.52 -38.28 -10.02 -39.6 -10.02Z M14.34 -11.52C13.86 -11.2 13.07 -10.88 11.97 -10.56C10.87 -10.24 9.7 -10.08 8.46 -10.08C5.82 -10.08 3.28 -10.96 0.84 -12.72C-0.4 -13.64 -1.42 -14.9 -2.22 -16.5C-3.02 -18.1 -3.42 -19.91 -3.42 -21.93C-3.42 -23.95 -3.02 -25.76 -2.22 -27.36C-1.42 -28.96 -0.42 -30.2 0.78 -31.08C3.3 -32.88 5.86 -33.78 8.46 -33.78C11.26 -33.78 13.5 -33.1 15.18 -31.74C16.5 -30.86 17.52 -30.42 18.24 -30.42C19.48 -30.42 20.88 -31.5 22.44 -33.66C23.28 -34.82 23.7 -35.93 23.7 -36.99C23.7 -38.05 23.18 -39 22.14 -39.84C21.74 -40.12 21.18 -40.48 20.46 -40.92L19.02 -41.76C18.02 -42.36 16.55 -42.95 14.61 -43.53C12.67 -44.11 10.76 -44.4 8.88 -44.4C4.92 -44.4 0.98 -43.32 -2.94 -41.16C-5.02 -40.04 -6.87 -38.65 -8.49 -36.99C-10.11 -35.33 -11.44 -33.23 -12.48 -30.69C-13.52 -28.15 -14.04 -25.32 -14.04 -22.2C-14.04 -19.08 -13.51 -16.19 -12.45 -13.53C-11.39 -10.87 -10.04 -8.69 -8.4 -6.99C-6.76 -5.29 -4.91 -3.85 -2.85 -2.67C-0.79 -1.49 1.21 -0.65 3.15 -0.15C5.09 0.35 7.01 0.6 8.91 0.6C10.81 0.6 12.78 0.28 14.82 -0.36C16.86 -1 18.21 -1.52 18.87 -1.92C19.53 -2.32 20.22 -2.74 20.94 -3.18C21.66 -3.62 22.29 -4.12 22.83 -4.68C23.37 -5.24 23.64 -5.94 23.64 -6.78C23.64 -7.62 23.2 -8.74 22.32 -10.14C20.88 -12.38 19.54 -13.5 18.3 -13.5C17.74 -13.5 16.78 -13.1 15.42 -12.3Z M52.92 -28.26C52.64 -28.66 52.28 -29.07 51.84 -29.49C51.4 -29.91 50.62 -30.36 49.5 -30.84C48.38 -31.32 47.14 -31.56 45.78 -31.56C42.22 -31.56 38.95 -29.99 35.97 -26.85C32.99 -23.71 31.5 -20.05 31.5 -15.87C31.5 -11.69 32.98 -8.02 35.94 -4.86C38.9 -1.7 42.11 -0.12 45.57 -0.12C49.03 -0.12 51.5 -1.18 52.98 -3.3C53.1 -2.26 53.53 -1.47 54.27 -0.93C55.01 -0.39 56.47 -0.12 58.65 -0.12C60.83 -0.12 62.2 -0.64 62.76 -1.68C63.04 -2.28 63.21 -2.81 63.27 -3.27C63.33 -3.73 63.36 -4.42 63.36 -5.34L63.36 -26.34C63.36 -27.26 63.33 -27.95 63.27 -28.41C63.21 -28.87 63.03 -29.4 62.73 -30C62.43 -30.6 61.9 -31.02 61.14 -31.26C60.38 -31.5 59.22 -31.62 57.66 -31.62C54.74 -31.62 53.16 -30.5 52.92 -28.26ZM43.56 -12.21C42.52 -13.27 42 -14.46 42 -15.78C42 -17.1 42.49 -18.32 43.47 -19.44C44.45 -20.56 45.73 -21.12 47.31 -21.12C48.89 -21.12 50.15 -20.56 51.09 -19.44C52.03 -18.32 52.5 -17.11 52.5 -15.81C52.5 -14.51 52.01 -13.32 51.03 -12.24C50.05 -11.16 48.82 -10.62 47.34 -10.62C45.86 -10.62 44.6 -11.15 43.56 -12.21Z M74.4 -2.82C77.96 -0.58 81.67 0.54 85.53 0.54C89.39 0.54 92.6 -0.08 95.16 -1.32C96.56 -2.04 97.65 -3.13 98.43 -4.59C99.21 -6.05 99.6 -7.82 99.6 -9.9C99.6 -11.98 99.21 -13.71 98.43 -15.09C97.65 -16.47 96.68 -17.44 95.52 -18C93.04 -19.24 90.48 -20 87.84 -20.28C85.12 -20.64 83.76 -21.42 83.76 -22.62C83.76 -23.5 84.94 -23.94 87.3 -23.94C88.82 -23.94 90.23 -23.64 91.53 -23.04C92.83 -22.44 93.72 -22.14 94.2 -22.14C95.12 -22.14 96.02 -22.84 96.9 -24.24C97.78 -25.64 98.22 -26.82 98.22 -27.78C98.22 -28.74 97.52 -29.54 96.12 -30.18C93.12 -31.54 90.2 -32.22 87.36 -32.22C78.68 -32.22 74.34 -29.06 74.34 -22.74C74.34 -20.62 74.72 -18.79 75.48 -17.25C76.24 -15.71 77.2 -14.58 78.36 -13.86C80.84 -12.34 83.34 -11.4 85.86 -11.04C88.54 -10.68 89.88 -10.12 89.88 -9.36C89.88 -8.4 88.66 -7.92 86.22 -7.92C84.86 -7.92 83.34 -8.41 81.66 -9.39C79.98 -10.37 78.65 -10.86 77.67 -10.86C76.69 -10.86 75.98 -10.52 75.54 -9.84C74.02 -7.72 73.26 -6.14 73.26 -5.1C73.26 -4.06 73.64 -3.3 74.4 -2.82Z M126.9 -21C127.82 -21 128.51 -21.03 128.97 -21.09C129.43 -21.15 129.96 -21.32 130.56 -21.6C131.64 -22.16 132.18 -23.7 132.18 -26.22C132.18 -28.78 131.66 -30.32 130.62 -30.84C130.02 -31.16 129.49 -31.35 129.03 -31.41C128.57 -31.47 127.89 -31.5 126.99 -31.5C126.09 -31.5 124.76 -31.42 123 -31.26L123 -37.14C123 -38.54 122.9 -39.56 122.7 -40.2C122.18 -41.68 120.56 -42.42 117.84 -42.42C115.28 -42.42 113.74 -41.92 113.22 -40.92C112.9 -40.4 112.71 -39.92 112.65 -39.48C112.59 -39.04 112.56 -38.36 112.56 -37.44L112.56 -31.26L110.58 -31.5C109.62 -31.5 108.82 -31.24 108.18 -30.72C107.82 -30.4 107.54 -29.87 107.34 -29.13C107.14 -28.39 107.04 -27.2 107.04 -25.56C107.04 -23.92 107.33 -22.76 107.91 -22.08C108.49 -21.4 109.22 -21.06 110.1 -21.06C110.98 -21.06 111.8 -21.12 112.56 -21.24L112.56 -12.36C112.56 -7.88 113.64 -4.7 115.8 -2.82C117.96 -0.94 121.12 0 125.28 0C126.16 0 126.83 -0.03 127.29 -0.09C127.75 -0.15 128.28 -0.32 128.88 -0.6C130 -1.16 130.56 -2.7 130.56 -5.22C130.56 -7.38 130.1 -8.72 129.18 -9.24C128.62 -9.56 128.09 -9.75 127.59 -9.81C127.09 -9.87 126.37 -9.9 125.43 -9.9C124.49 -9.9 123.85 -10.14 123.51 -10.62C123.17 -11.1 123 -11.88 123 -12.96L123 -21.24Z"></path></g></g></svg>