<svg xmlns="http://www.w3.org/2000/svg" width="214" height="188" viewBox="0 0 214 188" version="1.1"><path d="M 108 47.176 C 92.875 58.170, 75.407 70.815, 69.181 75.276 C 57.281 83.803, 55.587 85.880, 47.620 101.723 L 44.994 106.945 48.022 108.512 C 51.024 110.064, 51.106 110.035, 57.162 105.289 C 60.523 102.655, 65.457 98.795, 68.127 96.712 L 72.981 92.923 82.559 98.560 C 87.826 101.660, 92.252 104.040, 92.393 103.848 C 93.965 101.710, 99 91.725, 99 90.746 C 99 90.040, 96.257 87.954, 92.905 86.111 C 87.952 83.388, 87.063 82.532, 88.155 81.542 C 92.635 77.480, 115.629 60.667, 116.704 60.667 C 117.417 60.667, 118 60.366, 118 59.999 C 118 59.631, 122.068 52.224, 127.041 43.539 C 132.013 34.854, 135.950 27.621, 135.791 27.467 C 135.631 27.312, 123.125 36.181, 108 47.176 M 128.709 51.163 C 124.128 58.545, 115.490 73.902, 113.946 77.411 C 112.957 79.660, 111.640 85.325, 111.020 90 C 110.399 94.675, 109.701 99.622, 109.468 100.993 C 109.235 102.364, 108.750 106.084, 108.391 109.260 L 107.738 115.035 101.669 111.626 L 95.599 108.217 91.804 114.712 C 89.717 118.283, 88.236 121.572, 88.512 122.020 C 88.789 122.468, 92.612 124.908, 97.008 127.444 C 102.233 130.458, 105 132.664, 105 133.817 C 105 134.787, 104.293 140.667, 103.429 146.883 C 102.564 153.100, 102.091 158.795, 102.377 159.541 C 102.869 160.822, 108.932 164.515, 109.410 163.824 C 109.533 163.646, 112.135 159.382, 115.192 154.350 C 120.728 145.237, 120.756 145.150, 121.957 133.350 C 122.620 126.832, 123.362 119.925, 123.607 118 C 124.990 107.138, 130.751 49.446, 130.481 49.163 C 130.304 48.978, 129.507 49.878, 128.709 51.163 M 31.667 106.465 L 21.833 113.818 26.254 116.409 C 28.686 117.834, 30.913 119, 31.204 119 C 31.751 119, 43 100.412, 43 99.509 C 43 98.272, 40.895 99.564, 31.667 106.465 M 126.905 144.162 C 122.888 151.041, 122.797 151.380, 124.611 152.735 C 127.839 155.147, 129.860 156.036, 130.335 155.253 C 131.059 154.059, 132.300 137, 131.662 137 C 131.347 137, 129.206 140.223, 126.905 144.162" stroke="none" fill="#faf5f6" fill-rule="evenodd"/><path d="M 103.079 4.942 C 101.476 7.241, 62.135 75.106, 59.063 80.871 C 57.570 83.674, 57.939 83.507, 65.500 77.955 C 79.244 67.865, 132.826 29.141, 135.037 27.701 C 137.718 25.956, 146.625 11.292, 145.617 10.284 C 145.292 9.959, 135.990 8.048, 124.945 6.038 L 104.863 2.383 103.079 4.942 M 37.078 32.265 C 31.346 45.594, 21.783 67.734, 15.828 81.465 C 9.873 95.195, 5 106.896, 5 107.465 C 5 108.035, 8.785 114.723, 13.412 122.326 L 21.824 136.150 25.919 129.139 C 31.750 119.154, 31.731 119.618, 26.459 116.529 L 21.803 113.800 33.151 105.450 L 44.500 97.100 67.871 56.504 C 80.725 34.177, 91.075 15.753, 90.871 15.562 C 90.379 15.103, 50.929 7.990, 49 8.012 C 48 8.024, 44.025 16.110, 37.078 32.265 M 137.180 35.750 C 135.031 39.462, 132.780 43.447, 132.179 44.605 C 131.577 45.762, 129.481 62.187, 127.521 81.105 C 125.561 100.022, 123.757 117.075, 123.512 119 C 122.229 129.092, 120.922 143.256, 121.245 143.578 C 121.660 143.993, 168.333 63.425, 168.800 61.488 C 168.965 60.803, 168.513 59.626, 167.795 58.871 C 167.077 58.117, 162.126 52.325, 156.793 46 C 143.989 30.815, 142.375 29, 141.678 29 C 141.354 29, 139.330 32.038, 137.180 35.750 M 157.152 91.085 L 132.841 133.170 131.847 143.335 C 130.518 156.931, 130.685 156.587, 126.632 154.082 C 124.780 152.937, 122.999 152, 122.676 152 C 121.885 152, 114 165.564, 114 166.924 C 114 167.645, 119.081 168, 129.408 168 L 144.815 168 159.121 148.750 C 166.988 138.162, 181.291 118.925, 190.905 106 C 200.518 93.075, 208.410 81.750, 208.442 80.832 C 208.499 79.190, 183.602 49, 182.190 49 C 181.791 49, 170.524 67.938, 157.152 91.085 M 102.426 70.588 C 94.767 76.401, 88.130 81.515, 87.677 81.952 C 87.224 82.389, 89.865 84.430, 93.546 86.489 C 98.901 89.483, 100.415 89.958, 101.120 88.866 C 105.092 82.712, 117.182 60.849, 116.815 60.482 C 116.560 60.227, 110.085 64.774, 102.426 70.588 M 103.750 93.597 C 99.487 100.979, 96 107.360, 96 107.778 C 96 108.196, 98.647 109.994, 101.883 111.773 L 107.766 115.007 108.487 108.753 C 108.883 105.314, 109.360 101.616, 109.547 100.535 C 110.533 94.827, 112.142 80.809, 111.844 80.516 C 111.655 80.329, 108.013 86.216, 103.750 93.597 M 67.889 96.802 C 65.353 98.836, 60.502 102.674, 57.109 105.331 L 50.941 110.163 47.518 108.143 L 44.095 106.123 39.463 114.620 C 36.915 119.294, 35.064 123.654, 35.348 124.309 C 37.289 128.779, 57.794 161.459, 58.553 161.292 C 59.347 161.117, 92 105.682, 92 104.509 C 92 104.099, 73.340 92.961, 72.806 93.052 C 72.638 93.081, 70.425 94.768, 67.889 96.802 M 70.777 150.750 L 54.247 179.500 65.873 180.007 C 72.268 180.286, 82.655 180.511, 88.955 180.507 L 100.410 180.500 105.130 172.500 L 109.850 164.500 106.374 162.700 C 104.463 161.710, 102.665 160.290, 102.378 159.543 C 102.092 158.797, 102.564 153.100, 103.429 146.883 C 104.293 140.667, 105 134.801, 105 133.848 C 105 132.732, 101.943 130.317, 96.406 127.058 C 91.679 124.276, 87.698 122, 87.559 122 C 87.420 122, 79.868 134.938, 70.777 150.750" stroke="none" fill="#d00632" fill-rule="evenodd"/></svg>