<?xml version="1.0" standalone="no"?>
<!DOCTYPE svg PUBLIC "-//W3C//DTD SVG 20010904//EN"
 "http://www.w3.org/TR/2001/REC-SVG-20010904/DTD/svg10.dtd">
<svg version="1.0" xmlns="http://www.w3.org/2000/svg"
 width="225.000000pt" height="225.000000pt" viewBox="0 0 225.000000 225.000000"
 preserveAspectRatio="xMidYMid meet">

<g transform="translate(0.000000,225.000000) scale(0.100000,-0.100000)"
fill="#000000" stroke="none">
<path d="M380 1125 l0 -605 210 0 210 0 0 205 c0 196 1 205 19 205 22 0 36
-23 157 -257 l79 -153 70 0 70 0 106 203 c83 158 111 203 127 205 22 3 22 3
22 -202 l0 -206 210 0 210 0 0 605 0 605 -282 0 -283 0 -80 -233 c-67 -195
-83 -232 -100 -232 -16 0 -32 38 -99 232 l-81 233 -282 0 -283 0 0 -605z
m1351 496 c38 -39 40 -97 5 -138 -20 -23 -32 -28 -71 -28 -62 0 -95 35 -95
100 0 36 5 47 31 69 43 36 91 35 130 -3z m-111 -196 c0 -23 3 -24 68 -27 65
-3 67 -4 70 -30 l3 -28 -70 0 -71 0 0 -30 c0 -25 -4 -30 -25 -30 -25 0 -25 1
-25 85 0 84 0 85 25 85 20 0 25 -5 25 -25z m140 -185 l0 -30 -95 0 -95 0 0 30
0 30 95 0 95 0 0 -30z m-75 -62 c17 1 40 4 53 7 19 5 22 1 22 -24 0 -25 -4
-30 -27 -33 -20 -2 -29 -9 -31 -25 -3 -20 1 -23 27 -23 28 0 31 -3 31 -30 l0
-30 -95 0 -95 0 0 65 c0 53 4 69 21 86 15 15 27 19 42 14 12 -4 36 -7 52 -7z
m-65 -223 c0 -25 5 -45 10 -45 6 0 10 18 10 40 0 36 3 40 25 40 23 0 25 -4 25
-40 0 -22 5 -40 10 -40 6 0 10 20 10 45 0 41 2 45 25 45 24 0 25 -2 25 -75 l0
-75 -95 0 -95 0 0 75 c0 73 1 75 25 75 23 0 25 -4 25 -45z m140 -160 c0 -23
-3 -25 -52 -26 l-53 -1 53 -16 c43 -12 52 -19 52 -38 0 -19 -8 -25 -42 -34
-66 -17 -67 -18 -10 -19 49 -1 52 -3 52 -26 0 -25 0 -25 -95 -25 l-95 0 0 40
c0 38 1 40 43 50 59 15 65 18 41 19 -12 1 -35 6 -53 12 -28 10 -31 15 -31 50
l0 39 95 0 c95 0 95 0 95 -25z"/>
<path d="M1633 1583 c-7 -2 -13 -18 -13 -34 0 -53 81 -52 88 1 5 33 -34 50
-75 33z"/>
<path d="M1620 1105 c0 -16 6 -25 15 -25 9 0 15 9 15 25 0 16 -6 25 -15 25 -9
0 -15 -9 -15 -25z"/>
</g>
</svg>
