<?xml version="1.0" standalone="no"?>
<!DOCTYPE svg PUBLIC "-//W3C//DTD SVG 20010904//EN"
 "http://www.w3.org/TR/2001/REC-SVG-20010904/DTD/svg10.dtd">
<svg version="1.0" xmlns="http://www.w3.org/2000/svg"
 width="404.000000pt" height="882.000000pt" viewBox="0 0 404.000000 882.000000"
 preserveAspectRatio="xMidYMid meet">

<g transform="translate(0.000000,882.000000) scale(0.100000,-0.100000)"
fill="#000000" stroke="none">
<path d="M2 8359 l3 -462 980 -353 c539 -194 1013 -365 1053 -380 40 -14 71
-28 69 -31 -3 -2 -476 -199 -1052 -438 -576 -239 -1049 -436 -1051 -438 -2 -2
-3 -205 -2 -450 l3 -446 2018 906 c1109 498 2017 911 2017 917 0 6 -894 371
-1987 810 -1094 440 -2003 806 -2021 813 l-32 13 2 -461z"/>
<path d="M1990 5354 c-1086 -432 -1978 -789 -1983 -793 -4 -4 -6 -203 -5 -443
l3 -436 1550 624 c853 343 1747 703 1988 800 l437 177 0 428 c0 236 -3 429 -7
428 -5 0 -897 -353 -1983 -785z"/>
<path d="M1147 2989 c-220 -24 -473 -120 -628 -238 -93 -71 -211 -198 -275
-296 -154 -236 -243 -554 -244 -867 l0 -78 359 0 358 0 6 68 c14 167 76 311
177 412 111 112 238 160 420 160 170 0 307 -48 406 -142 112 -106 160 -219
189 -450 l6 -48 355 0 354 0 0 93 c0 323 -111 678 -284 907 -190 253 -450 409
-770 465 -115 20 -317 26 -429 14z"/>
<path d="M0 415 l0 -415 1990 0 1990 0 0 415 0 415 -1990 0 -1990 0 0 -415z"/>
</g>
</svg>
